# xmcd
#
# Track frame offsets:
#	150
#	15782
#	30085
#	46745
#	58727
#	76437
#	96452
#	112727
#	128510
#	140300
#	156652
#	173632
#
# Disc length: 2477 seconds
#
# Revision: 1
# Processed by: cddbd v1.5.1PL0 Copyright (c) Steve Scherf et al.
# Submitted via: audiograbber 1.82.02
#
DISCID=8509ab0c
DTITLE=Cato Sanden - My Country
DYEAR=1991
DGENRE=Country
TTITLE0=I Won't Be Blue
TTITLE1=Going In Circles
TTITLE2=Freedom Bells Are Ringing
TTITLE3=Here's To My Native Country
TTITLE4=Here We Are Again
TTITLE5=How Long Can This Last
TTITLE6=Spooky Town
TTITLE7=The Right Time
TTITLE8=Stop The Fight
TTITLE9=Sett Meg Fri
TTITLE10=Eg Vil Fortelle
TTITLE11=Still Roaming Around
EXTD=
EXTT0=
EXTT1=
EXTT2=
EXTT3=
EXTT4=
EXTT5=
EXTT6=
EXTT7=
EXTT8=
EXTT9=
EXTT10=
EXTT11=
PLAYORDER=
